<?xml version="1.0" encoding="UTF-8"?>
<!DOCTYPE svg PUBLIC "-//W3C//DTD SVG 1.1//EN" "http://www.w3.org/Graphics/SVG/1.1/DTD/svg11.dtd">
<svg version="1.1" xmlns="http://www.w3.org/2000/svg" xmlns:xlink="http://www.w3.org/1999/xlink" x="0" y="0" width="500" height="500" viewBox="0, 0, 500, 500">
  <g id="Layer_1">
    <path d="M74.045,273.635 L251.005,361.812 L251.053,361.787 L306.201,390.124 L306.413,389.713 L306.413,390.163 L307.831,390.163 L307.831,390.163 L399.914,347.344 L397.522,351.03 C397.494,351.075 397.507,351.056 397.484,351.087 C395.594,353.97 393.516,356.725 391.359,359.411 C389.951,361.325 390.76,360.289 388.889,362.487 C386.455,365.518 387.906,363.768 384.468,367.681 C382.471,370.027 383.344,369.099 381.933,370.541 C376.304,376.405 378.587,374.184 375.25,377.367 C374.154,378.486 374.72,377.947 373.552,378.987 C340.778,410.71 296.181,427.166 250.971,428.238 C240.198,428.155 229.365,427.366 218.8,425.173 C212.558,424.008 215.499,424.634 209.968,423.339 C209.493,423.241 209.703,423.294 209.336,423.191 C182.318,417.246 157.934,403.763 136.571,386.516 C135.164,385.417 136.338,386.346 133.203,383.543 C130.604,381.249 131.53,382.13 130.344,380.987 C115.841,368.275 104.33,352.632 94.867,335.926 L95.342,336.164 C84.394,316.83 77.656,295.488 74.045,273.635 z" fill="#000000"/>
    <path d="M427.6,273.514 C425.364,290.787 420.23,307.547 412.955,323.341 L307.372,372.438 L269.092,352.768 L427.6,273.514 z" fill="#000000"/>
    <path d="M198.537,130.228 L231.079,146.949 L72.066,226.728 C73.93,211.916 78.212,197.628 83.499,183.721 L198.537,130.228 z" fill="#000000"/>
    <path d="M248.484,71.762 C255.826,71.88 252.492,71.723 258.49,72.13 C264.235,72.413 261.608,72.212 266.374,72.665 C266.442,72.67 266.412,72.666 266.466,72.674 C350.484,79.99 413.775,144.756 427.182,226.607 L249.441,137.736 L249.087,137.914 L199.708,112.542 L199.496,112.953 L199.496,112.503 L198.078,112.503 L198.078,112.503 L198.078,112.503 L94.861,160.499 C126.63,105.618 185.696,73.338 248.484,71.762 z" fill="#000000"/>
    <path d="M250.971,181.149 L250.971,181.149 C275.658,181.149 295.671,201.161 295.671,225.848 L295.671,274.273 C295.671,298.96 275.658,318.972 250.971,318.972 L250.971,318.972 C226.284,318.972 206.272,298.96 206.272,274.273 L206.272,225.848 C206.272,201.161 226.284,181.149 250.971,181.149 z" fill="#000000"/>
  </g>
  <g id="Layer_2"/>
</svg>
